<?xml version="1.0" encoding="UTF-8"?>
<!-- Do not edit this file with editors other than draw.io -->
<!DOCTYPE svg PUBLIC "-//W3C//DTD SVG 1.1//EN" "http://www.w3.org/Graphics/SVG/1.1/DTD/svg11.dtd">
<svg xmlns="http://www.w3.org/2000/svg" style="background: transparent; background-color: transparent; color-scheme: light;" xmlns:xlink="http://www.w3.org/1999/xlink" version="1.1" width="359px" height="439px" viewBox="-0.5 -0.5 359 439" content="&lt;mxfile host=&quot;Electron&quot; agent=&quot;Mozilla/5.0 (X11; Linux x86_64) AppleWebKit/537.36 (KHTML, like Gecko) draw.io/26.1.1 Chrome/132.0.6834.210 Electron/34.3.3 Safari/537.36&quot; version=&quot;26.1.1&quot; scale=&quot;1&quot; border=&quot;0&quot;&gt;&#10;  &lt;diagram name=&quot;Page-1&quot; id=&quot;W2qDgIFsNMY0RUIaXxqj&quot;&gt;&#10;    &lt;mxGraphModel dx=&quot;1030&quot; dy=&quot;1216&quot; grid=&quot;1&quot; gridSize=&quot;10&quot; guides=&quot;1&quot; tooltips=&quot;1&quot; connect=&quot;1&quot; arrows=&quot;1&quot; fold=&quot;1&quot; page=&quot;1&quot; pageScale=&quot;1&quot; pageWidth=&quot;2336&quot; pageHeight=&quot;1654&quot; math=&quot;0&quot; shadow=&quot;0&quot;&gt;&#10;      &lt;root&gt;&#10;        &lt;mxCell id=&quot;0&quot; /&gt;&#10;        &lt;mxCell id=&quot;1&quot; parent=&quot;0&quot; /&gt;&#10;        &lt;mxCell id=&quot;qUjVfe4VSX1uA_H3d-F2-1&quot; value=&quot;&quot; style=&quot;sketch=0;points=[[0,0,0],[0.25,0,0],[0.5,0,0],[0.75,0,0],[1,0,0],[0,1,0],[0.25,1,0],[0.5,1,0],[0.75,1,0],[1,1,0],[0,0.25,0],[0,0.5,0],[0,0.75,0],[1,0.25,0],[1,0.5,0],[1,0.75,0]];outlineConnect=0;fontColor=#232F3E;fillColor=#8C4FFF;strokeColor=#ffffff;dashed=0;verticalLabelPosition=bottom;verticalAlign=top;align=center;html=1;fontSize=12;fontStyle=0;aspect=fixed;shape=mxgraph.aws4.resourceIcon;resIcon=mxgraph.aws4.cloudfront;&quot; vertex=&quot;1&quot; parent=&quot;1&quot;&gt;&#10;          &lt;mxGeometry x=&quot;150&quot; y=&quot;130&quot; width=&quot;78&quot; height=&quot;78&quot; as=&quot;geometry&quot; /&gt;&#10;        &lt;/mxCell&gt;&#10;        &lt;mxCell id=&quot;qUjVfe4VSX1uA_H3d-F2-2&quot; value=&quot;&quot; style=&quot;sketch=0;points=[[0,0,0],[0.25,0,0],[0.5,0,0],[0.75,0,0],[1,0,0],[0,1,0],[0.25,1,0],[0.5,1,0],[0.75,1,0],[1,1,0],[0,0.25,0],[0,0.5,0],[0,0.75,0],[1,0.25,0],[1,0.5,0],[1,0.75,0]];outlineConnect=0;fontColor=#232F3E;fillColor=#DD344C;strokeColor=#ffffff;dashed=0;verticalLabelPosition=bottom;verticalAlign=top;align=center;html=1;fontSize=12;fontStyle=0;aspect=fixed;shape=mxgraph.aws4.resourceIcon;resIcon=mxgraph.aws4.waf;&quot; vertex=&quot;1&quot; parent=&quot;1&quot;&gt;&#10;          &lt;mxGeometry x=&quot;150&quot; y=&quot;250&quot; width=&quot;78&quot; height=&quot;78&quot; as=&quot;geometry&quot; /&gt;&#10;        &lt;/mxCell&gt;&#10;        &lt;mxCell id=&quot;qUjVfe4VSX1uA_H3d-F2-3&quot; value=&quot;&quot; style=&quot;sketch=0;points=[[0,0,0],[0.25,0,0],[0.5,0,0],[0.75,0,0],[1,0,0],[0,1,0],[0.25,1,0],[0.5,1,0],[0.75,1,0],[1,1,0],[0,0.25,0],[0,0.5,0],[0,0.75,0],[1,0.25,0],[1,0.5,0],[1,0.75,0]];outlineConnect=0;fontColor=#232F3E;fillColor=#7AA116;strokeColor=#ffffff;dashed=0;verticalLabelPosition=bottom;verticalAlign=top;align=center;html=1;fontSize=12;fontStyle=0;aspect=fixed;shape=mxgraph.aws4.resourceIcon;resIcon=mxgraph.aws4.s3;&quot; vertex=&quot;1&quot; parent=&quot;1&quot;&gt;&#10;          &lt;mxGeometry x=&quot;150&quot; y=&quot;370&quot; width=&quot;78&quot; height=&quot;78&quot; as=&quot;geometry&quot; /&gt;&#10;        &lt;/mxCell&gt;&#10;        &lt;mxCell id=&quot;qUjVfe4VSX1uA_H3d-F2-4&quot; value=&quot;&quot; style=&quot;sketch=0;outlineConnect=0;fontColor=#232F3E;gradientColor=none;fillColor=#8C4FFF;strokeColor=none;dashed=0;verticalLabelPosition=bottom;verticalAlign=top;align=center;html=1;fontSize=12;fontStyle=0;aspect=fixed;pointerEvents=1;shape=mxgraph.aws4.application_load_balancer;&quot; vertex=&quot;1&quot; parent=&quot;1&quot;&gt;&#10;          &lt;mxGeometry x=&quot;290&quot; y=&quot;130&quot; width=&quot;78&quot; height=&quot;78&quot; as=&quot;geometry&quot; /&gt;&#10;        &lt;/mxCell&gt;&#10;        &lt;mxCell id=&quot;qUjVfe4VSX1uA_H3d-F2-5&quot; value=&quot;&quot; style=&quot;sketch=0;points=[[0,0,0],[0.25,0,0],[0.5,0,0],[0.75,0,0],[1,0,0],[0,1,0],[0.25,1,0],[0.5,1,0],[0.75,1,0],[1,1,0],[0,0.25,0],[0,0.5,0],[0,0.75,0],[1,0.25,0],[1,0.5,0],[1,0.75,0]];outlineConnect=0;fontColor=#232F3E;fillColor=#ED7100;strokeColor=#ffffff;dashed=0;verticalLabelPosition=bottom;verticalAlign=top;align=center;html=1;fontSize=12;fontStyle=0;aspect=fixed;shape=mxgraph.aws4.resourceIcon;resIcon=mxgraph.aws4.ec2;&quot; vertex=&quot;1&quot; parent=&quot;1&quot;&gt;&#10;          &lt;mxGeometry x=&quot;290&quot; y=&quot;250&quot; width=&quot;78&quot; height=&quot;78&quot; as=&quot;geometry&quot; /&gt;&#10;        &lt;/mxCell&gt;&#10;        &lt;mxCell id=&quot;qUjVfe4VSX1uA_H3d-F2-6&quot; value=&quot;&quot; style=&quot;sketch=0;points=[[0,0,0],[0.25,0,0],[0.5,0,0],[0.75,0,0],[1,0,0],[0,1,0],[0.25,1,0],[0.5,1,0],[0.75,1,0],[1,1,0],[0,0.25,0],[0,0.5,0],[0,0.75,0],[1,0.25,0],[1,0.5,0],[1,0.75,0]];outlineConnect=0;fontColor=#232F3E;fillColor=#E7157B;strokeColor=#ffffff;dashed=0;verticalLabelPosition=bottom;verticalAlign=top;align=center;html=1;fontSize=12;fontStyle=0;aspect=fixed;shape=mxgraph.aws4.resourceIcon;resIcon=mxgraph.aws4.sqs;&quot; vertex=&quot;1&quot; parent=&quot;1&quot;&gt;&#10;          &lt;mxGeometry x=&quot;290&quot; y=&quot;370&quot; width=&quot;78&quot; height=&quot;78&quot; as=&quot;geometry&quot; /&gt;&#10;        &lt;/mxCell&gt;&#10;        &lt;mxCell id=&quot;qUjVfe4VSX1uA_H3d-F2-7&quot; value=&quot;&quot; style=&quot;sketch=0;points=[[0,0,0],[0.25,0,0],[0.5,0,0],[0.75,0,0],[1,0,0],[0,1,0],[0.25,1,0],[0.5,1,0],[0.75,1,0],[1,1,0],[0,0.25,0],[0,0.5,0],[0,0.75,0],[1,0.25,0],[1,0.5,0],[1,0.75,0]];outlineConnect=0;fontColor=#232F3E;fillColor=#ED7100;strokeColor=#ffffff;dashed=0;verticalLabelPosition=bottom;verticalAlign=top;align=center;html=1;fontSize=12;fontStyle=0;aspect=fixed;shape=mxgraph.aws4.resourceIcon;resIcon=mxgraph.aws4.lambda;&quot; vertex=&quot;1&quot; parent=&quot;1&quot;&gt;&#10;          &lt;mxGeometry x=&quot;150&quot; y=&quot;490&quot; width=&quot;78&quot; height=&quot;78&quot; as=&quot;geometry&quot; /&gt;&#10;        &lt;/mxCell&gt;&#10;        &lt;mxCell id=&quot;qUjVfe4VSX1uA_H3d-F2-8&quot; value=&quot;&quot; style=&quot;sketch=0;points=[[0,0,0],[0.25,0,0],[0.5,0,0],[0.75,0,0],[1,0,0],[0,1,0],[0.25,1,0],[0.5,1,0],[0.75,1,0],[1,1,0],[0,0.25,0],[0,0.5,0],[0,0.75,0],[1,0.25,0],[1,0.5,0],[1,0.75,0]];outlineConnect=0;fontColor=#232F3E;fillColor=#DD344C;strokeColor=#ffffff;dashed=0;verticalLabelPosition=bottom;verticalAlign=top;align=center;html=1;fontSize=12;fontStyle=0;aspect=fixed;shape=mxgraph.aws4.resourceIcon;resIcon=mxgraph.aws4.simple_email_service;&quot; vertex=&quot;1&quot; parent=&quot;1&quot;&gt;&#10;          &lt;mxGeometry x=&quot;290&quot; y=&quot;490&quot; width=&quot;78&quot; height=&quot;78&quot; as=&quot;geometry&quot; /&gt;&#10;        &lt;/mxCell&gt;&#10;        &lt;mxCell id=&quot;qUjVfe4VSX1uA_H3d-F2-9&quot; value=&quot;&quot; style=&quot;sketch=0;points=[[0,0,0],[0.25,0,0],[0.5,0,0],[0.75,0,0],[1,0,0],[0,1,0],[0.25,1,0],[0.5,1,0],[0.75,1,0],[1,1,0],[0,0.25,0],[0,0.5,0],[0,0.75,0],[1,0.25,0],[1,0.5,0],[1,0.75,0]];outlineConnect=0;fontColor=#232F3E;fillColor=#C925D1;strokeColor=#ffffff;dashed=0;verticalLabelPosition=bottom;verticalAlign=top;align=center;html=1;fontSize=12;fontStyle=0;aspect=fixed;shape=mxgraph.aws4.resourceIcon;resIcon=mxgraph.aws4.rds;&quot; vertex=&quot;1&quot; parent=&quot;1&quot;&gt;&#10;          &lt;mxGeometry x=&quot;430&quot; y=&quot;130&quot; width=&quot;78&quot; height=&quot;78&quot; as=&quot;geometry&quot; /&gt;&#10;        &lt;/mxCell&gt;&#10;        &lt;mxCell id=&quot;qUjVfe4VSX1uA_H3d-F2-10&quot; value=&quot;&quot; style=&quot;sketch=0;points=[[0,0,0],[0.25,0,0],[0.5,0,0],[0.75,0,0],[1,0,0],[0,1,0],[0.25,1,0],[0.5,1,0],[0.75,1,0],[1,1,0],[0,0.25,0],[0,0.5,0],[0,0.75,0],[1,0.25,0],[1,0.5,0],[1,0.75,0]];outlineConnect=0;fontColor=#232F3E;fillColor=#C925D1;strokeColor=#ffffff;dashed=0;verticalLabelPosition=bottom;verticalAlign=top;align=center;html=1;fontSize=12;fontStyle=0;aspect=fixed;shape=mxgraph.aws4.resourceIcon;resIcon=mxgraph.aws4.elasticache;&quot; vertex=&quot;1&quot; parent=&quot;1&quot;&gt;&#10;          &lt;mxGeometry x=&quot;430&quot; y=&quot;250&quot; width=&quot;78&quot; height=&quot;78&quot; as=&quot;geometry&quot; /&gt;&#10;        &lt;/mxCell&gt;&#10;      &lt;/root&gt;&#10;    &lt;/mxGraphModel&gt;&#10;  &lt;/diagram&gt;&#10;&lt;/mxfile&gt;&#10;"><defs/><g><g data-cell-id="0"><g data-cell-id="1"><g data-cell-id="qUjVfe4VSX1uA_H3d-F2-1"><g><path d="M 0 0 L 78 0 L 78 78 L 0 78 Z" fill="#8c4fff" stroke="none" pointer-events="all" style="fill: rgb(140, 79, 255);"/><path d="M 55.85 52.51 C 55.85 50.67 54.35 49.17 52.51 49.17 C 50.66 49.17 49.16 50.67 49.16 52.51 C 49.16 54.35 50.66 55.85 52.51 55.85 C 54.35 55.85 55.85 54.35 55.85 52.51 Z M 58.08 52.51 C 58.08 55.58 55.58 58.08 52.51 58.08 C 49.44 58.08 46.94 55.58 46.94 52.51 C 46.94 49.44 49.44 46.94 52.51 46.94 C 55.58 46.94 58.08 49.44 58.08 52.51 Z M 28.29 36.43 C 28.29 34.59 26.79 33.09 24.95 33.09 C 23.11 33.09 21.61 34.59 21.61 36.43 C 21.61 38.27 23.11 39.77 24.95 39.77 C 26.79 39.77 28.29 38.27 28.29 36.43 Z M 30.52 36.43 C 30.52 39.5 28.02 42 24.95 42 C 21.88 42 19.38 39.5 19.38 36.43 C 19.38 33.36 21.88 30.86 24.95 30.86 C 28.02 30.86 30.52 33.36 30.52 36.43 Z M 38.7 18.95 C 38.7 20.79 40.2 22.29 42.04 22.29 C 43.89 22.29 45.38 20.79 45.38 18.95 C 45.38 17.11 43.89 15.61 42.04 15.61 C 40.2 15.61 38.7 17.11 38.7 18.95 Z M 36.47 18.95 C 36.47 15.88 38.97 13.38 42.04 13.38 C 45.11 13.38 47.61 15.88 47.61 18.95 C 47.61 22.02 45.11 24.52 42.04 24.52 C 38.97 24.52 36.47 22.02 36.47 18.95 Z M 67.97 39 C 67.97 28.67 62.43 19.11 53.5 13.94 C 51.9 14.26 50.35 14.7 48.42 15.4 L 47.66 13.31 C 48.67 12.94 49.57 12.65 50.44 12.4 C 46.85 10.85 42.95 10.03 39 10.03 C 37.12 10.03 35.27 10.22 33.46 10.58 C 34.77 11.34 35.93 12.11 37.06 12.96 L 35.71 14.74 C 34.12 13.53 32.47 12.51 30.31 11.38 C 19.36 14.82 11.48 24.47 10.23 35.8 C 12.53 35.34 14.73 35.08 17.18 35.02 L 17.23 37.25 C 14.67 37.31 12.47 37.58 10.06 38.11 C 10.05 38.41 10.03 38.71 10.03 39 C 10.03 48.65 14.8 57.54 22.65 62.9 C 21.25 58.74 20.56 54.81 20.56 50.97 C 20.56 48.79 20.94 46.99 21.33 45.09 C 21.43 44.65 21.52 44.2 21.61 43.73 L 23.8 44.16 C 23.7 44.64 23.61 45.1 23.51 45.54 C 23.12 47.41 22.79 49.02 22.79 50.97 C 22.79 55.33 23.74 59.83 25.69 64.72 C 29.83 66.87 34.31 67.97 39 67.97 C 42.07 67.97 45.07 67.48 47.93 66.54 C 49.05 64.32 49.88 62.24 50.58 59.84 L 52.72 60.46 C 52.21 62.21 51.63 63.8 50.93 65.38 C 52.73 64.57 54.43 63.57 56.03 62.41 C 55.65 61.46 55.23 60.53 54.78 59.61 L 56.77 58.62 C 57.16 59.39 57.51 60.18 57.85 60.98 C 64.3 55.46 67.97 47.54 67.97 39 Z M 70.2 39 C 70.2 48.72 65.78 57.72 58.08 63.68 C 56.17 65.16 54.1 66.39 51.91 67.38 C 50.99 67.8 50.04 68.19 49.07 68.52 C 45.86 69.64 42.47 70.2 39 70.2 C 33.87 70.2 28.78 68.92 24.28 66.51 C 14.11 61.07 7.8 50.53 7.8 39 C 7.8 38.24 7.82 37.65 7.87 37.12 C 8.62 24.1 17.56 12.83 30.09 9.1 C 32.94 8.24 35.94 7.8 39 7.8 C 44.36 7.8 49.63 9.18 54.25 11.79 C 64.09 17.3 70.2 27.73 70.2 39 Z M 36.01 22.8 L 34.54 21.12 C 32.04 23.3 30.1 25.62 27.83 29.11 L 29.7 30.33 C 31.85 27.01 33.68 24.84 36.01 22.8 Z M 32.62 37.25 L 31.9 39.35 C 37.01 41.11 41.48 43.92 45.95 48.18 L 47.49 46.56 C 42.78 42.07 38.05 39.11 32.62 37.25 Z M 47.52 24.14 C 51.7 30.52 54.06 37.52 54.52 44.95 L 52.29 45.09 C 51.85 38.05 49.62 31.41 45.66 25.37 Z" fill="#ffffff" stroke="none" pointer-events="all" style="fill: rgb(255, 255, 255);"/></g></g><g data-cell-id="qUjVfe4VSX1uA_H3d-F2-2"><g><path d="M 0 120 L 78 120 L 78 198 L 0 198 Z" fill="#dd344c" stroke="none" pointer-events="all" style="fill: rgb(221, 52, 76);"/><path d="M 10.47 160.11 L 7.8 160.11 L 7.8 157.89 L 10.47 157.89 C 10.7 152.25 12.52 146.89 15.83 142.31 L 17.64 143.62 C 14.61 147.81 12.92 152.72 12.7 157.89 L 15.6 157.89 L 15.6 160.11 L 12.7 160.11 C 12.91 165.31 14.59 170.25 17.64 174.46 L 15.83 175.77 C 12.51 171.17 10.68 165.78 10.47 160.11 Z M 55.73 182.21 C 51.14 185.53 45.77 187.35 40.11 187.57 L 40.11 190.2 L 37.89 190.2 L 37.89 187.57 C 32.23 187.35 26.85 185.53 22.27 182.21 L 23.58 180.4 C 27.78 183.44 32.71 185.13 37.89 185.34 L 37.89 182.4 L 40.11 182.4 L 40.11 185.34 C 45.29 185.13 50.22 183.44 54.42 180.4 Z M 22.27 135.87 C 26.85 132.56 32.23 130.73 37.89 130.51 L 37.89 127.8 L 40.11 127.8 L 40.11 130.51 C 45.77 130.73 51.14 132.56 55.73 135.87 L 54.42 137.68 C 50.22 134.64 45.29 132.96 40.11 132.74 L 40.11 135.6 L 37.89 135.6 L 37.89 132.74 C 32.71 132.96 27.78 134.64 23.58 137.68 Z M 70.2 157.89 L 70.2 160.11 L 67.53 160.11 C 67.32 165.78 65.49 171.17 62.17 175.77 L 60.36 174.46 C 63.41 170.25 65.09 165.31 65.3 160.11 L 62.4 160.11 L 62.4 157.89 L 65.3 157.89 C 65.07 152.72 63.39 147.81 60.36 143.62 L 62.17 142.31 C 65.47 146.89 67.3 152.25 67.52 157.89 Z M 55.68 140.78 L 64.42 132.05 L 65.99 133.62 L 57.26 142.36 Z M 22.31 177.3 L 13.58 186.04 L 12 184.46 L 20.74 175.73 Z M 24.8 146.37 L 8.26 129.84 L 9.83 128.26 L 26.37 144.8 Z M 53.16 171.58 L 69.74 188.16 L 68.16 189.74 L 51.58 173.16 Z M 29.71 159.82 C 29.79 159.67 29.89 159.52 29.98 159.37 C 31.85 156.43 31.32 152.41 30.72 149.99 C 32.33 151.04 33.77 153.22 34.27 154.14 C 34.48 154.53 34.89 154.76 35.34 154.72 C 35.78 154.69 36.15 154.4 36.3 153.98 C 37.96 149.27 37.12 145.73 35.95 143.43 C 37.37 144.25 38.46 145.44 39.19 146.96 C 40.77 150.24 40.42 154.72 38.27 158.67 C 35.34 164.05 35.93 169.7 36.6 172.74 C 34.93 172.02 33.44 171.21 32.15 170.31 C 28.78 167.96 27.71 163.35 29.71 159.82 Z M 44.68 159.44 C 44.6 159.9 44.82 160.35 45.22 160.58 C 45.61 160.82 46.12 160.78 46.48 160.49 C 46.57 160.42 48.39 158.91 49.28 155.26 C 50.34 156.81 51.46 159.94 49.98 165.69 C 48.51 171.38 41.54 172.98 39.05 173.37 C 38.45 171.22 37.24 165.24 40.23 159.73 C 42.36 155.82 42.92 151.4 41.86 147.75 C 43.87 150.12 45.58 153.84 44.68 159.44 Z M 27.77 158.72 C 25.21 163.25 26.57 169.14 30.88 172.14 C 32.83 173.5 35.19 174.68 37.9 175.65 C 38.02 175.69 38.15 175.71 38.27 175.71 C 38.3 175.71 38.32 175.7 38.34 175.7 L 38.34 175.71 C 38.81 175.67 49.95 174.71 52.13 166.25 C 54.94 155.36 49.31 152.14 49.07 152 C 48.75 151.83 48.35 151.82 48.02 151.99 C 47.69 152.17 47.47 152.49 47.43 152.87 C 47.35 153.62 47.23 154.29 47.08 154.88 C 46.31 146.34 39.53 142.86 38.16 142.24 C 36.76 141.16 35.05 140.43 33.07 140.07 C 32.58 139.98 32.08 140.24 31.87 140.7 C 31.66 141.16 31.78 141.7 32.17 142.03 C 32.33 142.17 35.81 145.18 34.81 150.91 C 33.52 149.21 31.46 147.17 29.04 147.17 C 28.67 147.17 28.33 147.35 28.12 147.65 C 27.91 147.95 27.87 148.34 28 148.68 C 28.02 148.74 30.3 154.73 28.1 158.18 C 27.98 158.36 27.87 158.54 27.77 158.72 Z" fill="#ffffff" stroke="none" pointer-events="all" style="fill: rgb(255, 255, 255);"/></g></g><g data-cell-id="qUjVfe4VSX1uA_H3d-F2-3"><g><path d="M 0 240 L 78 240 L 78 318 L 0 318 Z" fill="#7aa116" stroke="none" pointer-events="all" style="fill: rgb(122, 161, 22);"/><path d="M 62.28 282.22 L 62.71 279.21 C 66.66 281.57 66.71 282.55 66.71 282.58 C 66.7 282.58 66.03 283.14 62.28 282.22 Z M 60.12 281.62 C 53.3 279.56 43.8 275.2 39.96 273.39 C 39.96 273.37 39.96 273.36 39.96 273.34 C 39.96 271.86 38.76 270.66 37.28 270.66 C 35.81 270.66 34.61 271.86 34.61 273.34 C 34.61 274.82 35.81 276.02 37.28 276.02 C 37.93 276.02 38.52 275.78 38.98 275.39 C 43.51 277.53 52.93 281.82 59.8 283.85 L 57.08 303.03 C 57.07 303.08 57.07 303.13 57.07 303.18 C 57.07 304.87 49.6 307.97 37.39 307.97 C 25.05 307.97 17.49 304.87 17.49 303.18 C 17.49 303.13 17.49 303.08 17.48 303.03 L 11.81 261.57 C 16.72 264.95 27.29 266.74 37.39 266.74 C 47.48 266.74 58.03 264.96 62.96 261.59 Z M 11.21 257.25 C 11.29 255.78 19.71 250.03 37.39 250.03 C 55.07 250.03 63.5 255.78 63.58 257.25 L 63.58 257.75 C 62.61 261.04 51.69 264.51 37.39 264.51 C 23.07 264.51 12.15 261.02 11.21 257.73 Z M 65.81 257.27 C 65.81 253.41 54.74 247.8 37.39 247.8 C 20.05 247.8 8.98 253.41 8.98 257.27 L 9.08 258.11 L 15.27 303.27 C 15.41 308.32 28.88 310.2 37.39 310.2 C 47.94 310.2 59.15 307.77 59.3 303.27 L 61.97 284.44 C 63.45 284.8 64.68 284.98 65.66 284.98 C 66.98 284.98 67.87 284.66 68.41 284.01 C 68.85 283.49 69.02 282.85 68.89 282.16 C 68.61 280.62 66.77 278.96 63.05 276.83 L 65.69 258.16 Z" fill="#ffffff" stroke="none" pointer-events="all" style="fill: rgb(255, 255, 255);"/></g></g><g data-cell-id="qUjVfe4VSX1uA_H3d-F2-4"><g><rect x="140" y="0" width="78" height="78" fill="none" stroke="none" pointer-events="all"/><path d="M 179 0 C 157.49 0 140 17.5 140 39 C 140 60.5 157.49 78 179 78 C 200.5 78 218 60.5 218 39 C 218 17.5 200.5 0 179 0 Z M 179 74.45 C 159.45 74.45 143.55 58.55 143.55 39 C 143.55 19.45 159.45 3.55 179 3.55 C 198.55 3.55 214.45 19.45 214.45 39 C 214.45 58.55 198.55 74.45 179 74.45 Z M 202.11 49.64 L 199.39 49.64 L 199.39 43.65 C 199.39 42.67 198.59 41.88 197.61 41.88 L 193.18 41.88 L 193.18 35.9 C 193.18 34.92 192.39 34.13 191.41 34.13 L 180.77 34.13 L 180.77 29.91 L 191.41 29.91 C 192.39 29.91 193.18 29.12 193.18 28.14 L 193.18 14.18 C 193.18 13.2 192.39 12.41 191.41 12.41 L 166.59 12.41 C 165.61 12.41 164.82 13.2 164.82 14.18 L 164.82 28.14 C 164.82 29.12 165.61 29.91 166.59 29.91 L 177.23 29.91 L 177.23 34.13 L 166.59 34.13 C 165.61 34.13 164.82 34.92 164.82 35.9 L 164.82 41.88 L 160.39 41.88 C 159.41 41.88 158.61 42.67 158.61 43.65 L 158.61 49.64 L 155.89 49.64 C 154.91 49.64 154.12 50.43 154.12 51.41 L 154.12 59.16 C 154.12 60.14 154.91 60.94 155.89 60.94 L 163.49 60.94 C 164.47 60.94 165.26 60.14 165.26 59.16 L 165.26 51.41 C 165.26 50.43 164.47 49.64 163.49 49.64 L 162.16 49.64 L 162.16 45.43 L 169.47 45.43 L 169.47 49.64 L 168.14 49.64 C 167.16 49.64 166.37 50.43 166.37 51.41 L 166.37 59.16 C 166.37 60.14 167.16 60.94 168.14 60.94 L 175.9 60.94 C 176.88 60.94 177.67 60.14 177.67 59.16 L 177.67 51.41 C 177.67 50.43 176.88 49.64 175.9 49.64 L 173.02 49.64 L 173.02 43.65 C 173.02 42.67 172.22 41.88 171.25 41.88 L 168.36 41.88 L 168.36 37.67 L 189.64 37.67 L 189.64 41.88 L 186.76 41.88 C 185.78 41.88 184.98 42.67 184.98 43.65 L 184.98 49.64 L 182.1 49.64 C 181.12 49.64 180.33 50.43 180.33 51.41 L 180.33 59.16 C 180.33 60.14 181.12 60.94 182.1 60.94 L 189.86 60.94 C 190.84 60.94 191.63 60.14 191.63 59.16 L 191.63 51.41 C 191.63 50.43 190.84 49.64 189.86 49.64 L 188.53 49.64 L 188.53 45.43 L 195.84 45.43 L 195.84 49.64 L 194.4 49.64 C 193.42 49.64 192.63 50.43 192.63 51.41 L 192.63 59.16 C 192.63 60.14 193.42 60.94 194.4 60.94 L 202.11 60.94 C 203.08 60.94 203.88 60.14 203.88 59.16 L 203.88 51.41 C 203.88 50.43 203.08 49.64 202.11 49.64 Z M 168.36 26.37 L 168.36 15.96 L 189.64 15.96 L 189.64 26.37 Z M 157.67 57.39 L 157.67 53.18 L 161.72 53.18 L 161.72 57.39 Z M 169.92 57.39 L 169.92 53.18 L 174.13 53.18 L 174.13 57.39 Z M 183.88 57.39 L 183.88 53.18 L 188.09 53.18 L 188.09 57.39 Z M 196.18 57.39 L 196.18 53.18 L 200.33 53.18 L 200.33 57.39 Z" fill="#8c4fff" stroke="none" pointer-events="all" style="fill: rgb(140, 79, 255);"/></g></g><g data-cell-id="qUjVfe4VSX1uA_H3d-F2-5"><g><path d="M 140 120 L 218 120 L 218 198 L 140 198 Z" fill="#ed7100" stroke="none" pointer-events="all" style="fill: rgb(237, 113, 0);"/><path d="M 164.51 173.49 L 192.37 173.49 L 192.37 145.63 L 164.51 145.63 Z M 194.6 145.63 L 199.06 145.63 L 199.06 147.86 L 194.6 147.86 L 194.6 152.31 L 199.06 152.31 L 199.06 154.54 L 194.6 154.54 L 194.6 157.89 L 199.06 157.89 L 199.06 160.11 L 194.6 160.11 L 194.6 164.57 L 199.06 164.57 L 199.06 166.8 L 194.6 166.8 L 194.6 171.26 L 199.06 171.26 L 199.06 173.49 L 194.6 173.49 L 194.6 173.64 C 194.6 174.78 193.67 175.71 192.52 175.71 L 192.37 175.71 L 192.37 180.17 L 190.14 180.17 L 190.14 175.71 L 185.69 175.71 L 185.69 180.17 L 183.46 180.17 L 183.46 175.71 L 180.11 175.71 L 180.11 180.17 L 177.89 180.17 L 177.89 175.71 L 173.43 175.71 L 173.43 180.17 L 171.2 180.17 L 171.2 175.71 L 166.74 175.71 L 166.74 180.17 L 164.51 180.17 L 164.51 175.71 L 164.36 175.71 C 163.22 175.71 162.29 174.78 162.29 173.64 L 162.29 173.49 L 158.94 173.49 L 158.94 171.26 L 162.29 171.26 L 162.29 166.8 L 158.94 166.8 L 158.94 164.57 L 162.29 164.57 L 162.29 160.11 L 158.94 160.11 L 158.94 157.89 L 162.29 157.89 L 162.29 154.54 L 158.94 154.54 L 158.94 152.31 L 162.29 152.31 L 162.29 147.86 L 158.94 147.86 L 158.94 145.63 L 162.29 145.63 L 162.29 145.48 C 162.29 144.33 163.22 143.4 164.36 143.4 L 164.51 143.4 L 164.51 138.94 L 166.74 138.94 L 166.74 143.4 L 171.2 143.4 L 171.2 138.94 L 173.43 138.94 L 173.43 143.4 L 177.89 143.4 L 177.89 138.94 L 180.11 138.94 L 180.11 143.4 L 183.46 143.4 L 183.46 138.94 L 185.69 138.94 L 185.69 143.4 L 190.14 143.4 L 190.14 138.94 L 192.37 138.94 L 192.37 143.4 L 192.52 143.4 C 193.67 143.4 194.6 144.33 194.6 145.48 Z M 180.11 187.83 C 180.11 187.91 180.05 187.97 179.98 187.97 L 150.17 187.97 C 150.09 187.97 150.03 187.91 150.03 187.83 L 150.03 158.02 C 150.03 157.95 150.09 157.89 150.17 157.89 L 156.71 157.89 L 156.71 155.66 L 150.17 155.66 C 148.86 155.66 147.8 156.72 147.8 158.02 L 147.8 187.83 C 147.8 189.14 148.86 190.2 150.17 190.2 L 179.98 190.2 C 181.28 190.2 182.34 189.14 182.34 187.83 L 182.34 182.4 L 180.11 182.4 Z M 210.2 130.17 L 210.2 159.98 C 210.2 161.28 209.14 162.34 207.83 162.34 L 201.29 162.34 L 201.29 160.11 L 207.83 160.11 C 207.91 160.11 207.97 160.05 207.97 159.98 L 207.97 130.17 C 207.97 130.09 207.91 130.03 207.83 130.03 L 178.02 130.03 C 177.95 130.03 177.89 130.09 177.89 130.17 L 177.89 136.71 L 175.66 136.71 L 175.66 130.17 C 175.66 128.86 176.72 127.8 178.02 127.8 L 207.83 127.8 C 209.14 127.8 210.2 128.86 210.2 130.17 Z" fill="#ffffff" stroke="none" pointer-events="all" style="fill: rgb(255, 255, 255);"/></g></g><g data-cell-id="qUjVfe4VSX1uA_H3d-F2-6"><g><path d="M 140 240 L 218 240 L 218 318 L 140 318 Z" fill="#e7157b" stroke="none" pointer-events="all" style="fill: rgb(231, 21, 123);"/><path d="M 166.66 283.03 L 169.95 279.79 C 170.15 279.59 170.27 279.31 170.27 279.02 C 170.27 278.73 170.15 278.46 169.95 278.25 L 166.67 274.97 L 165.12 276.5 L 166.52 277.91 L 161.52 277.91 L 161.52 280.09 L 166.54 280.09 L 165.12 281.49 Z M 191.71 283.13 L 196.09 279.87 C 196.36 279.66 196.53 279.34 196.53 279 C 196.53 278.66 196.36 278.33 196.09 278.13 L 191.71 274.87 L 190.4 276.61 L 192.15 277.91 L 187.77 277.91 L 187.77 280.09 L 192.15 280.09 L 190.4 281.39 Z M 173.76 279 C 173.76 281.31 173.36 283.48 172.62 285.38 C 174.58 284.62 176.8 284.24 179.02 284.24 C 181.24 284.24 183.46 284.62 185.43 285.38 C 184.68 283.48 184.28 281.31 184.28 279 C 184.28 276.69 184.68 274.52 185.43 272.62 C 181.49 274.13 176.55 274.13 172.62 272.62 C 173.36 274.52 173.76 276.69 173.76 279 Z M 168.4 289.55 C 168.19 289.34 168.08 289.06 168.08 288.78 C 168.08 288.51 168.19 288.23 168.4 288.01 C 170.39 286.04 171.57 282.67 171.57 279 C 171.57 275.33 170.39 271.96 168.4 269.99 C 168.19 269.77 168.08 269.49 168.08 269.22 C 168.08 268.94 168.19 268.66 168.4 268.45 C 168.83 268.02 169.52 268.02 169.95 268.45 C 174.19 272.66 183.85 272.66 188.09 268.45 C 188.52 268.02 189.21 268.02 189.64 268.45 C 189.85 268.66 189.96 268.94 189.96 269.22 C 189.96 269.49 189.85 269.77 189.64 269.99 C 187.65 271.96 186.47 275.33 186.47 279 C 186.47 282.67 187.65 286.04 189.64 288.01 C 189.85 288.23 189.96 288.51 189.96 288.78 C 189.96 289.06 189.85 289.34 189.64 289.55 C 189.43 289.76 189.15 289.87 188.87 289.87 C 188.59 289.87 188.31 289.76 188.09 289.55 C 183.85 285.34 174.19 285.34 169.95 289.55 C 169.52 289.98 168.83 289.98 168.4 289.55 Z M 207.43 279.01 C 207.43 277.99 207.03 277.04 206.31 276.32 C 205.57 275.58 204.59 275.21 203.61 275.21 C 202.63 275.21 201.66 275.58 200.91 276.32 C 199.42 277.8 199.42 280.21 200.91 281.69 C 202.4 283.17 204.82 283.17 206.31 281.69 C 207.03 280.97 207.43 280.02 207.43 279.01 Z M 207.86 283.22 C 206.69 284.39 205.15 284.97 203.61 284.97 C 202.07 284.97 200.54 284.39 199.36 283.22 C 197.02 280.9 197.02 277.11 199.36 274.79 C 201.71 272.46 205.52 272.46 207.86 274.79 C 210.2 277.11 210.2 280.9 207.86 283.22 Z M 158.2 279.03 C 158.2 278.02 157.81 277.06 157.08 276.35 C 156.36 275.63 155.41 275.24 154.39 275.24 C 153.37 275.24 152.41 275.63 151.69 276.35 C 150.97 277.06 150.57 278.02 150.57 279.03 C 150.57 280.04 150.97 280.99 151.69 281.71 C 153.13 283.14 155.64 283.14 157.08 281.71 C 157.81 280.99 158.2 280.04 158.2 279.03 Z M 158.63 283.25 C 157.46 284.41 155.92 284.99 154.39 284.99 C 152.85 284.99 151.31 284.41 150.14 283.25 C 147.8 280.92 147.8 277.14 150.14 274.81 C 152.48 272.48 156.29 272.48 158.63 274.81 C 160.97 277.14 160.97 280.92 158.63 283.25 Z M 195.29 295.24 C 190.92 299.58 185.11 301.97 178.93 301.97 C 172.75 301.97 166.95 299.58 162.58 295.24 C 159.58 292.27 157.93 288.71 157.08 286.25 L 155.01 286.97 C 155.94 289.64 157.74 293.51 161.03 296.78 C 165.81 301.53 172.17 304.15 178.93 304.15 C 185.7 304.15 192.05 301.53 196.83 296.78 C 199.6 294.04 201.8 290.55 203.03 286.96 L 200.96 286.26 C 199.83 289.54 197.82 292.73 195.29 295.24 Z M 157.08 271.75 L 155.01 271.03 C 156.34 267.25 158.48 263.76 161.04 261.21 C 165.82 256.47 172.17 253.85 178.93 253.85 C 185.69 253.85 192.05 256.47 196.83 261.21 C 199.52 263.89 201.79 267.47 203.03 271.03 L 200.96 271.75 C 199.82 268.49 197.75 265.21 195.28 262.75 C 190.92 258.41 185.11 256.03 178.93 256.03 C 172.76 256.03 166.95 258.41 162.59 262.75 C 160.25 265.07 158.3 268.27 157.08 271.75 Z" fill="#ffffff" stroke="none" pointer-events="all" style="fill: rgb(255, 255, 255);"/></g></g><g data-cell-id="qUjVfe4VSX1uA_H3d-F2-7"><g><path d="M 0 360 L 78 360 L 78 438 L 0 438 Z" fill="#ed7100" stroke="none" pointer-events="all" style="fill: rgb(237, 113, 0);"/><path d="M 25.67 427.97 L 11.83 427.97 L 27.13 395.99 L 34.06 410.26 Z M 28.13 392.93 C 27.94 392.55 27.55 392.3 27.13 392.3 L 27.12 392.3 C 26.69 392.3 26.3 392.55 26.12 392.94 L 9.05 428.61 C 8.89 428.95 8.91 429.36 9.11 429.68 C 9.32 430 9.68 430.2 10.06 430.2 L 26.37 430.2 C 26.8 430.2 27.2 429.95 27.38 429.56 L 36.31 410.73 C 36.46 410.43 36.46 410.07 36.31 409.77 Z M 66.88 427.97 L 53.13 427.97 L 31.08 381.81 C 30.9 381.42 30.5 381.17 30.07 381.17 L 21.08 381.17 L 21.09 370.03 L 38.72 370.03 L 60.67 416.19 C 60.85 416.58 61.25 416.83 61.68 416.83 L 66.88 416.83 Z M 68 414.6 L 62.38 414.6 L 40.43 368.44 C 40.25 368.05 39.85 367.8 39.42 367.8 L 19.97 367.8 C 19.36 367.8 18.86 368.3 18.85 368.91 L 18.84 382.28 C 18.84 382.58 18.96 382.86 19.17 383.07 C 19.38 383.28 19.66 383.4 19.96 383.4 L 29.37 383.4 L 51.42 429.56 C 51.61 429.95 52 430.2 52.43 430.2 L 68 430.2 C 68.61 430.2 69.11 429.7 69.11 429.09 L 69.11 415.71 C 69.11 415.1 68.61 414.6 68 414.6 Z" fill="#ffffff" stroke="none" pointer-events="all" style="fill: rgb(255, 255, 255);"/></g></g><g data-cell-id="qUjVfe4VSX1uA_H3d-F2-8"><g><path d="M 140 360 L 218 360 L 218 438 L 140 438 Z" fill="#dd344c" stroke="none" pointer-events="all" style="fill: rgb(221, 52, 76);"/><path d="M 197.94 422.4 C 197.94 420.59 196.41 419.06 194.6 419.06 C 192.79 419.06 191.26 420.59 191.26 422.4 C 191.26 424.21 192.79 425.74 194.6 425.74 C 196.41 425.74 197.94 424.21 197.94 422.4 Z M 179 421.29 C 177.19 421.29 175.66 422.82 175.66 424.63 C 175.66 426.44 177.19 427.97 179 427.97 C 180.81 427.97 182.34 426.44 182.34 424.63 C 182.34 422.82 180.81 421.29 179 421.29 Z M 163.4 419.06 C 161.59 419.06 160.06 420.59 160.06 422.4 C 160.06 424.21 161.59 425.74 163.4 425.74 C 165.21 425.74 166.74 424.21 166.74 422.4 C 166.74 420.59 165.21 419.06 163.4 419.06 Z M 166.3 402.34 L 191.7 402.34 L 183.17 394.67 L 179.72 397.62 C 179.52 397.8 179.26 397.88 179 397.88 C 178.74 397.88 178.48 397.8 178.27 397.62 L 174.83 394.67 Z M 164.51 385.82 L 164.51 400.96 L 173.13 393.2 Z M 191.59 384.51 L 166.41 384.51 L 179 395.3 Z M 193.49 400.96 L 193.49 385.82 L 184.87 393.2 Z M 200.17 422.4 C 200.17 425.42 197.62 427.97 194.6 427.97 C 191.58 427.97 189.03 425.42 189.03 422.4 C 189.03 419.76 190.98 417.48 193.49 416.95 L 193.49 413.49 L 180.11 413.49 L 180.11 419.18 C 182.62 419.71 184.57 421.99 184.57 424.63 C 184.57 427.65 182.02 430.2 179 430.2 C 175.98 430.2 173.43 427.65 173.43 424.63 C 173.43 421.99 175.38 419.71 177.89 419.18 L 177.89 413.49 L 164.51 413.49 L 164.51 416.95 C 167.02 417.48 168.97 419.76 168.97 422.4 C 168.97 425.42 166.42 427.97 163.4 427.97 C 160.38 427.97 157.83 425.42 157.83 422.4 C 157.83 419.76 159.78 417.48 162.29 416.95 L 162.29 412.37 C 162.29 411.76 162.78 411.26 163.4 411.26 L 177.89 411.26 L 177.89 404.57 L 163.4 404.57 C 162.78 404.57 162.29 404.07 162.29 403.46 L 162.29 383.4 C 162.29 382.78 162.78 382.28 163.4 382.28 L 194.6 382.28 C 195.22 382.28 195.71 382.78 195.71 383.4 L 195.71 403.46 C 195.71 404.07 195.22 404.57 194.6 404.57 L 180.11 404.57 L 180.11 411.26 L 194.6 411.26 C 195.22 411.26 195.71 411.76 195.71 412.37 L 195.71 416.95 C 198.22 417.48 200.17 419.76 200.17 422.4 Z M 210.2 399 C 210.2 405.58 208.17 411.88 204.32 417.21 L 202.52 415.91 C 206.08 410.96 207.97 405.11 207.97 399 C 207.97 383.03 194.98 370.03 179 370.03 C 163.03 370.03 150.03 383.03 150.03 399 C 150.03 405.11 151.92 410.96 155.48 415.91 L 153.68 417.21 C 149.83 411.88 147.8 405.58 147.8 399 C 147.8 381.8 161.8 367.8 179 367.8 C 196.2 367.8 210.2 381.8 210.2 399 Z" fill="#ffffff" stroke="none" pointer-events="all" style="fill: rgb(255, 255, 255);"/></g></g><g data-cell-id="qUjVfe4VSX1uA_H3d-F2-9"><g><path d="M 280 0 L 358 0 L 358 78 L 280 78 Z" fill="#c925d1" stroke="none" pointer-events="all" style="fill: rgb(201, 37, 209);"/><path d="M 291.6 10.03 L 301.96 20.38 L 300.38 21.96 L 290.03 11.6 L 290.03 20.06 L 287.8 20.06 L 287.8 8.91 C 287.8 8.3 288.3 7.8 288.91 7.8 L 300.06 7.8 L 300.06 10.03 Z M 350.2 8.91 L 350.2 20.06 L 347.97 20.06 L 347.97 11.6 L 337.62 21.96 L 336.04 20.38 L 346.4 10.03 L 337.94 10.03 L 337.94 7.8 L 349.09 7.8 C 349.7 7.8 350.2 8.3 350.2 8.91 Z M 347.97 57.94 L 350.2 57.94 L 350.2 69.09 C 350.2 69.7 349.7 70.2 349.09 70.2 L 337.94 70.2 L 337.94 67.97 L 346.4 67.97 L 336.04 57.62 L 337.62 56.04 L 347.97 66.4 Z M 347.41 38.12 C 347.41 34.42 343.14 30.77 335.99 28.35 L 336.71 26.24 C 344.93 29.02 349.64 33.35 349.64 38.12 C 349.64 42.89 344.93 47.23 336.71 50.01 L 335.99 47.9 C 343.14 45.48 347.41 41.82 347.41 38.12 Z M 290.65 38.12 C 290.65 41.67 294.65 45.22 301.34 47.64 L 300.58 49.74 C 292.85 46.95 288.42 42.71 288.42 38.12 C 288.42 33.53 292.85 29.3 300.58 26.51 L 301.34 28.61 C 294.65 31.02 290.65 34.58 290.65 38.12 Z M 301.96 57.62 L 291.6 67.97 L 300.06 67.97 L 300.06 70.2 L 288.91 70.2 C 288.3 70.2 287.8 69.7 287.8 69.09 L 287.8 57.94 L 290.03 57.94 L 290.03 66.4 L 300.38 56.04 Z M 319 29.29 C 311.04 29.29 306.74 27.23 306.74 26.39 C 306.74 25.55 311.04 23.5 319 23.5 C 326.96 23.5 331.26 25.55 331.26 26.39 C 331.26 27.23 326.96 29.29 319 29.29 Z M 319.03 37.92 C 311.41 37.92 306.74 35.84 306.74 34.7 L 306.74 29.29 C 309.49 30.8 314.36 31.52 319 31.52 C 323.64 31.52 328.51 30.8 331.26 29.29 L 331.26 34.7 C 331.26 35.84 326.62 37.92 319.03 37.92 Z M 319.03 46.43 C 311.41 46.43 306.74 44.35 306.74 43.21 L 306.74 37.73 C 309.45 39.32 314.26 40.15 319.03 40.15 C 323.78 40.15 328.56 39.33 331.26 37.74 L 331.26 43.21 C 331.26 44.35 326.62 46.43 319.03 46.43 Z M 319 54.06 C 311.07 54.06 306.74 51.93 306.74 50.84 L 306.74 46.24 C 309.45 47.83 314.26 48.66 319.03 48.66 C 323.78 48.66 328.56 47.84 331.26 46.25 L 331.26 50.84 C 331.26 51.93 326.93 54.06 319 54.06 Z M 319 21.27 C 312.02 21.27 304.51 22.87 304.51 26.39 L 304.51 50.84 C 304.51 54.42 311.8 56.29 319 56.29 C 326.2 56.29 333.49 54.42 333.49 50.84 L 333.49 26.39 C 333.49 22.87 325.98 21.27 319 21.27 Z" fill="#ffffff" stroke="none" pointer-events="all" style="fill: rgb(255, 255, 255);"/></g></g><g data-cell-id="qUjVfe4VSX1uA_H3d-F2-10"><g><path d="M 280 120 L 358 120 L 358 198 L 280 198 Z" fill="#c925d1" stroke="none" pointer-events="all" style="fill: rgb(201, 37, 209);"/><path d="M 331.26 182.46 L 331.26 175.94 C 328.43 177.76 323.35 178.63 318.51 178.63 C 313.22 178.63 309.11 177.7 306.74 176.12 L 306.74 182.46 C 306.74 184.35 311.14 186.3 318.51 186.3 C 326.02 186.3 331.26 184.28 331.26 182.46 Z M 318.51 168.72 C 313.22 168.72 309.11 167.8 306.74 166.22 L 306.74 172.58 C 306.78 174.46 311.17 176.4 318.51 176.4 C 326 176.4 331.22 174.39 331.26 172.58 L 331.26 166.03 C 328.43 167.86 323.35 168.72 318.51 168.72 Z M 331.26 162.67 L 331.26 155.13 C 328.43 156.96 323.35 157.82 318.51 157.82 C 313.22 157.82 309.11 156.9 306.74 155.32 L 306.74 162.67 C 306.78 164.55 311.17 166.49 318.51 166.49 C 326 166.49 331.22 164.48 331.26 162.67 Z M 306.74 151.75 C 306.74 151.75 306.74 151.76 306.74 151.76 L 306.74 151.76 L 306.74 151.77 C 306.78 153.65 311.17 155.59 318.51 155.59 C 326.69 155.59 331.22 153.34 331.26 151.77 L 331.26 151.76 L 331.26 151.76 C 331.26 151.76 331.26 151.75 331.26 151.75 C 331.26 150.18 326.72 147.91 318.51 147.91 C 311.14 147.91 306.74 149.86 306.74 151.75 Z M 333.49 151.78 L 333.49 162.65 L 333.49 162.65 C 333.49 162.66 333.49 162.67 333.49 162.68 L 333.49 172.56 L 333.49 172.56 C 333.49 172.57 333.49 172.58 333.49 172.59 L 333.49 182.46 C 333.49 186.63 325.72 188.53 318.51 188.53 C 310.01 188.53 304.51 186.15 304.51 182.46 L 304.51 172.59 C 304.51 172.58 304.51 172.57 304.51 172.56 L 304.51 172.56 L 304.51 162.68 C 304.51 162.67 304.51 162.66 304.51 162.65 L 304.51 162.65 L 304.51 151.78 C 304.51 151.77 304.51 151.76 304.51 151.75 C 304.51 148.06 310 145.68 318.51 145.68 C 325.72 145.68 333.49 147.58 333.49 151.75 C 333.49 151.76 333.49 151.77 333.49 151.78 Z M 349.09 137.41 C 349.7 137.41 350.2 136.91 350.2 136.29 L 350.2 130.59 C 350.2 129.97 349.7 129.47 349.09 129.47 L 288.91 129.47 C 288.3 129.47 287.8 129.97 287.8 130.59 L 287.8 136.29 C 287.8 136.91 288.3 137.41 288.91 137.41 C 290.27 137.41 291.38 138.51 291.38 139.86 C 291.38 141.21 290.27 142.31 288.91 142.31 C 288.3 142.31 287.8 142.81 287.8 143.42 L 287.8 166.25 C 287.8 166.86 288.3 167.36 288.91 167.36 L 300.06 167.36 L 300.06 165.13 L 294.49 165.13 L 294.49 161.79 L 300.06 161.79 L 300.06 159.56 L 293.37 159.56 C 292.76 159.56 292.26 160.06 292.26 160.67 L 292.26 165.13 L 290.03 165.13 L 290.03 144.4 C 292.08 143.9 293.61 142.06 293.61 139.86 C 293.61 137.66 292.08 135.81 290.03 135.31 L 290.03 131.7 L 347.97 131.7 L 347.97 135.31 C 345.92 135.81 344.39 137.66 344.39 139.86 C 344.39 142.06 345.92 143.9 347.97 144.4 L 347.97 165.13 L 345.74 165.13 L 345.74 160.67 C 345.74 160.06 345.24 159.56 344.63 159.56 L 337.94 159.56 L 337.94 161.79 L 343.51 161.79 L 343.51 165.13 L 337.94 165.13 L 337.94 167.36 L 349.09 167.36 C 349.7 167.36 350.2 166.86 350.2 166.25 L 350.2 143.42 C 350.2 142.81 349.7 142.31 349.09 142.31 C 347.73 142.31 346.62 141.21 346.62 139.86 C 346.62 138.51 347.73 137.41 349.09 137.41 Z M 305.63 145.07 L 305.63 136.16 C 305.63 135.54 305.13 135.04 304.51 135.04 L 297.83 135.04 C 297.21 135.04 296.71 135.54 296.71 136.16 L 296.71 155.1 C 296.71 155.72 297.21 156.22 297.83 156.22 L 301.17 156.22 L 301.17 153.99 L 298.94 153.99 L 298.94 137.27 L 303.4 137.27 L 303.4 145.07 Z M 339.06 153.99 L 337.94 153.99 L 337.94 156.22 L 340.17 156.22 C 340.79 156.22 341.29 155.72 341.29 155.1 L 341.29 136.16 C 341.29 135.54 340.79 135.04 340.17 135.04 L 333.49 135.04 C 332.87 135.04 332.37 135.54 332.37 136.16 L 332.37 145.07 L 334.6 145.07 L 334.6 137.27 L 339.06 137.27 Z M 330.14 143.96 L 330.14 136.16 C 330.14 135.54 329.64 135.04 329.03 135.04 L 321.23 135.04 C 320.61 135.04 320.11 135.54 320.11 136.16 L 320.11 142.84 L 322.34 142.84 L 322.34 137.27 L 327.91 137.27 L 327.91 143.96 Z M 315.66 142.84 L 315.66 137.27 L 310.09 137.27 L 310.09 143.96 L 307.86 143.96 L 307.86 136.16 C 307.86 135.54 308.36 135.04 308.97 135.04 L 316.77 135.04 C 317.39 135.04 317.89 135.54 317.89 136.16 L 317.89 142.84 Z" fill="#ffffff" stroke="none" pointer-events="all" style="fill: rgb(255, 255, 255);"/></g></g></g></g></g></svg>